<?xml version="1.0" standalone="no"?>
<!DOCTYPE svg PUBLIC "-//W3C//DTD SVG 20010904//EN"
 "http://www.w3.org/TR/2001/REC-SVG-20010904/DTD/svg10.dtd">
<svg version="1.0" xmlns="http://www.w3.org/2000/svg"
 width="700.000000pt" height="700.000000pt" viewBox="0 0 700.000000 700.000000"
 preserveAspectRatio="xMidYMid meet">
<metadata>
Created by potrace 1.14, written by Peter Selinger 2001-2017
</metadata>
<g transform="translate(0.000000,700.000000) scale(0.100000,-0.100000)"
fill="#000000" stroke="none">
<path d="M2518 5210 c-119 -6 -124 -11 -123 -116 0 -44 -3 -75 -10 -75 -5 -1
-49 -2 -97 -3 -130 -2 -129 -2 -127 -178 1 -151 10 -187 43 -189 46 -2 120 -9
122 -12 4 -4 12 -56 19 -122 3 -33 8 -76 10 -95 7 -52 13 -108 20 -172 l6 -58
-55 0 c-63 0 -90 -19 -88 -60 3 -55 14 -179 17 -190 2 -8 7 -44 11 -80 3 -36
7 -74 9 -85 2 -24 15 -128 20 -170 2 -16 7 -55 10 -85 3 -30 8 -66 10 -80 20
-140 25 -150 64 -150 60 0 64 28 36 255 -11 85 -15 125 -20 175 -3 30 -10 89
-15 130 -5 41 -12 104 -16 140 -3 36 -7 70 -8 75 -1 7 387 11 1142 12 l1144 2
-7 -82 c-3 -45 -8 -91 -10 -102 -2 -11 -7 -49 -10 -85 -4 -36 -8 -78 -10 -95
-2 -16 -6 -55 -10 -85 -3 -30 -8 -71 -10 -90 -3 -19 -12 -98 -21 -175 -9 -77
-18 -155 -20 -172 -2 -18 -6 -49 -8 -69 -2 -19 -7 -38 -11 -42 -8 -9 -2041 -9
-2050 -1 -3 4 -8 28 -12 54 -9 80 -18 99 -47 110 -33 11 -58 -2 -66 -36 -5
-22 2 -105 14 -169 2 -14 5 -33 5 -42 1 -21 31 -31 96 -34 28 -1 53 -2 56 -3
4 -1 10 -31 14 -68 3 -38 8 -81 10 -98 2 -16 7 -52 10 -80 3 -27 8 -63 10 -80
3 -16 7 -55 10 -85 3 -30 7 -73 10 -95 8 -63 14 -116 21 -175 3 -30 7 -66 9
-80 2 -14 6 -54 10 -90 4 -36 8 -76 10 -90 2 -14 7 -47 10 -75 8 -68 26 -145
33 -146 4 0 16 -2 27 -5 32 -6 971 -5 988 2 24 9 30 53 12 80 -14 22 -23 24
-88 25 -39 0 -247 1 -462 2 l-389 2 -7 40 c-4 22 -10 69 -13 105 -4 36 -8 75
-10 86 -4 19 -16 126 -21 189 -2 28 -8 76 -20 165 -2 19 -7 58 -10 85 -9 79
-13 114 -24 205 -6 47 -12 107 -14 134 l-2 50 855 0 c841 0 855 0 856 -19 0
-11 -5 -65 -11 -120 -18 -143 -24 -198 -30 -257 -3 -29 -8 -69 -10 -88 -4 -33
-9 -73 -20 -157 -2 -21 -7 -63 -10 -93 -4 -30 -8 -66 -10 -80 -2 -14 -6 -53
-10 -86 -3 -34 -9 -84 -13 -110 l-7 -49 -70 -3 c-73 -4 -94 -16 -95 -58 0 -42
29 -54 129 -54 51 0 101 5 111 10 29 15 35 47 65 317 3 24 7 62 10 85 2 23 7
65 10 93 3 27 8 64 10 80 2 17 6 50 9 75 8 72 26 222 32 265 2 22 6 56 8 75
13 133 20 170 30 171 6 1 35 2 64 4 29 1 60 8 67 16 17 17 22 42 45 244 6 50
13 107 15 128 3 20 7 55 10 77 3 22 7 57 10 79 3 21 7 60 10 87 4 46 10 98 21
185 2 20 7 55 9 79 2 24 7 59 9 79 10 74 19 177 18 201 -3 36 -15 43 -82 48
l-61 4 5 49 c4 27 8 73 11 102 3 28 8 63 10 77 4 23 13 111 20 183 1 15 5 30
8 33 3 3 32 7 64 9 70 3 90 11 96 35 3 11 5 81 6 157 1 180 4 177 -129 177
-55 0 -101 4 -101 8 -1 5 -2 38 -3 76 -1 37 -7 77 -14 90 -13 22 -17 23 -130
20 -111 -3 -117 -4 -128 -26 -15 -29 -7 -60 17 -73 10 -5 47 -11 81 -12 60 -2
61 -3 62 -30 1 -15 -1 -33 -5 -39 -11 -17 -1979 -18 -1980 0 -1 6 -2 24 -3 40
l-1 27 730 2 c402 1 787 2 856 2 139 1 162 9 162 56 0 54 1 54 -472 55 -240 1
-600 2 -801 3 -201 1 -409 0 -462 -3z m2207 -377 l1 -71 -912 0 c-501 1 -917
-3 -923 -7 -24 -14 -29 -49 -13 -77 l16 -28 631 0 c774 -1 1007 -3 1021 -12 7
-5 1 -76 -17 -225 -15 -120 -28 -219 -28 -220 -1 -1 -448 -2 -995 -3 -784 0
-996 3 -1003 12 -6 7 -16 63 -23 123 -6 61 -13 121 -15 135 -2 14 -7 62 -11
108 l-7 82 81 0 c90 0 112 12 112 60 0 46 -25 52 -204 54 l-161 1 0 65 c-1 36
2 67 6 70 4 3 555 5 1225 5 l1218 0 1 -72z"/>
<path d="M2726 4762 c-47 -10 -64 -55 -33 -89 40 -45 137 -19 137 35 0 36 -55
64 -104 54z"/>
<path d="M3847 1900 c-71 -5 -87 -16 -87 -56 0 -42 29 -54 128 -54 129 0 163
18 141 78 -12 32 -64 41 -182 32z"/>
</g>
</svg>
